<?xml version="1.0" encoding="utf-8"?>
<!-- Generator: Adobe Illustrator 19.0.0, SVG Export Plug-In . SVG Version: 6.00 Build 0)  -->
<svg version="1.1" id="Warstwa_1" xmlns="http://www.w3.org/2000/svg" xmlns:xlink="http://www.w3.org/1999/xlink" x="0px" y="0px"
	 viewBox="0 0 1000 1000" style="enable-background:new 0 0 1000 1000;" xml:space="preserve">
<style type="text/css">
	.st0{fill:#8EA604;}
	.st1{fill:#EE0979;}
	.st2{fill:#FF6A00;}
	.st3{fill:#FF8939;}
	.st4{fill:#FFAC73;}
	.st5{fill:#ED489F;}
	.st6{fill:#ACB73D;}
	.st7{fill:#CBCE82;}
	.st8{fill:#EAEAB0;}
</style>
<path id="XMLID_1_" class="st0" d="M983.7,1000H683c-9,0-16.3-7.3-16.3-16.3V17c0-9,7.3-16.3,16.3-16.3h300.7
	c9,0,16.3,7.3,16.3,16.3v966.7C1000,992.7,992.7,1000,983.7,1000z"/>
<path id="XMLID_2_" class="st1" d="M317,389.6H16.3c-9,0-16.3-7.3-16.3-16.3V17C0,8,7.3,0.7,16.3,0.7H317c9,0,16.3,7.3,16.3,16.3
	v356.3C333.3,382.3,326,389.6,317,389.6z"/>
<path id="XMLID_3_" class="st2" d="M650.4,778.5H349.6c-9,0-16.3-7.3-16.3-16.3V17c0-9,7.3-16.3,16.3-16.3h300.7
	c9,0,16.3,7.3,16.3,16.3v745.2C666.7,771.2,659.4,778.5,650.4,778.5z"/>
<path id="XMLID_4_" class="st3" d="M650.4,520.9H349.6c-9,0-16.3-7.3-16.3-16.3V17c0-9,7.3-16.3,16.3-16.3h300.7
	c9,0,16.3,7.3,16.3,16.3v487.6C666.7,513.6,659.4,520.9,650.4,520.9z"/>
<path id="XMLID_5_" class="st4" d="M650.4,294H349.6c-9,0-16.3-7.3-16.3-16.3V17c0-9,7.3-16.3,16.3-16.3h300.7
	c9,0,16.3,7.3,16.3,16.3v260.7C666.7,286.7,659.4,294,650.4,294z"/>
<path id="XMLID_6_" class="st5" d="M317,199.2H16.3c-9,0-16.3-7.3-16.3-16.3V17C0,8,7.3,0.7,16.3,0.7H317c9,0,16.3,7.3,16.3,16.3
	v166C333.3,191.9,326,199.2,317,199.2z"/>
<path id="XMLID_8_" class="st6" d="M983.7,673H683c-9,0-16.3-7.3-16.3-16.3V17c0-9,7.3-16.3,16.3-16.3h300.7c9,0,16.3,7.3,16.3,16.3
	v639.8C1000,665.7,992.7,673,983.7,673z"/>
<path id="XMLID_7_" class="st7" d="M983.7,410.1H683c-9,0-16.3-7.3-16.3-16.3V17c0-9,7.3-16.3,16.3-16.3h300.7
	c9,0,16.3,7.3,16.3,16.3v376.8C1000,402.8,992.7,410.1,983.7,410.1z"/>
<path id="XMLID_9_" class="st8" d="M983.7,199.2H683c-9,0-16.3-7.3-16.3-16.3V17c0-9,7.3-16.3,16.3-16.3h300.7
	c9,0,16.3,7.3,16.3,16.3v166C1000,191.9,992.7,199.2,983.7,199.2z"/>
</svg>
